<svg width="68" height="23" viewBox="0 0 68 23" fill="none" xmlns="http://www.w3.org/2000/svg">
<path d="M9.21596 15.72C9.21596 14.6 9.43996 12.92 9.88796 10.68H6.33596L5.01596 17.52H-4.29675e-05L3.04796 1.68002H8.11196L6.71996 8.76002H10.272L11.592 1.68002H16.656C16.432 2.86402 16.176 4.12002 15.888 5.44802L15.072 9.36002C14.464 12.4 14.16 14.584 14.16 15.912C14.16 16.456 14.248 16.88 14.424 17.184C13.624 17.728 12.752 18 11.808 18C10.88 18 10.216 17.776 9.81596 17.328C9.41596 16.88 9.21596 16.344 9.21596 15.72ZM26.9527 13.464C27.3527 13.736 27.5527 14.176 27.5527 14.784C27.5527 15.376 27.4007 15.864 27.0967 16.248C26.7927 16.632 26.3927 16.952 25.8967 17.208C24.8727 17.736 23.8087 18 22.7047 18C21.6007 18 20.7207 17.88 20.0647 17.64C19.4247 17.4 18.8887 17.056 18.4567 16.608C17.6087 15.76 17.1847 14.56 17.1847 13.008C17.1847 10.592 17.8407 8.64802 19.1527 7.17602C20.5607 5.59202 22.4887 4.80002 24.9367 4.80002C26.4567 4.80002 27.5927 5.12002 28.3447 5.76002C28.9047 6.24002 29.1847 6.87202 29.1847 7.65602C29.1847 10.472 26.7527 11.88 21.8887 11.88C21.8247 12.296 21.7927 12.68 21.7927 13.032C21.7927 13.768 21.9527 14.28 22.2727 14.568C22.6087 14.84 23.0807 14.976 23.6887 14.976C24.2967 14.976 24.9207 14.84 25.5607 14.568C26.2167 14.28 26.6807 13.912 26.9527 13.464ZM22.0567 10.848C23.1927 10.848 24.0887 10.496 24.7447 9.79202C25.4007 9.12002 25.7287 8.24802 25.7287 7.17602C25.7287 6.80802 25.6567 6.52802 25.5127 6.33602C25.3847 6.12802 25.1847 6.02402 24.9127 6.02402C24.6407 6.02402 24.3847 6.08002 24.1447 6.19202C23.9207 6.28802 23.6887 6.51202 23.4487 6.86402C22.8567 7.66402 22.3927 8.99202 22.0567 10.848ZM37.6381 14.808C36.8061 15.672 35.6301 16.104 34.1101 16.104C32.2061 16.104 31.0541 15.408 30.6541 14.016C30.5261 13.6 30.4621 13.16 30.4621 12.696C30.4621 12.232 30.5101 11.76 30.6061 11.28L31.7341 5.28002L36.6061 4.80002L35.2861 11.784C35.2541 11.992 35.2141 12.208 35.1661 12.432C35.1181 12.656 35.0941 12.888 35.0941 13.128C35.0941 13.352 35.1341 13.544 35.2141 13.704C35.2941 13.848 35.3901 13.968 35.5021 14.064C35.6941 14.192 35.9581 14.256 36.2941 14.256C36.6461 14.256 36.9661 14.048 37.2541 13.632C37.5581 13.216 37.7821 12.648 37.9261 11.928L39.2461 5.28002L43.9741 4.80002L42.1741 14.232C41.5821 17.304 40.6781 19.448 39.4621 20.664C38.8381 21.288 38.1181 21.72 37.3021 21.96C36.5021 22.216 35.5821 22.344 34.5421 22.344C32.8621 22.344 31.5421 22.08 30.5821 21.552C29.6221 21.024 29.1421 20.32 29.1421 19.44C29.1421 18.784 29.3901 18.264 29.8861 17.88C30.3821 17.512 31.0141 17.328 31.7821 17.328C32.4541 17.328 33.0461 17.472 33.5581 17.76C33.8621 17.936 34.0861 18.136 34.2301 18.36C33.8621 18.68 33.6781 19.104 33.6781 19.632C33.6781 20.336 33.9981 20.688 34.6381 20.688C35.6941 20.688 36.5261 19.472 37.1341 17.04C37.3101 16.32 37.4781 15.576 37.6381 14.808ZM52.4021 4.80002C52.9781 4.80002 53.4901 4.86402 53.9381 4.99202C53.9541 4.92802 53.9781 4.80802 54.0101 4.63202L54.1301 3.88802C54.1941 3.56802 54.2741 3.14402 54.3701 2.61602L54.7541 0.720018L59.5301 0.240019L56.8661 14.16C56.8501 14.256 56.8421 14.384 56.8421 14.544V14.928C56.8421 15.28 56.9301 15.592 57.1061 15.864C57.2821 16.12 57.5141 16.248 57.8021 16.248C57.4821 17 56.8341 17.536 55.8581 17.856C55.5221 17.952 55.1141 18 54.6341 18C54.1701 18 53.7221 17.872 53.2901 17.616C52.8581 17.376 52.5781 17.048 52.4501 16.632C52.1941 17.048 51.8101 17.376 51.2981 17.616C50.7861 17.872 50.1541 18 49.4021 18C48.6661 18 47.9861 17.904 47.3621 17.712C46.7541 17.52 46.2581 17.216 45.8741 16.8C45.1701 15.984 44.8181 14.648 44.8181 12.792C44.8181 10.392 45.5221 8.46402 46.9301 7.00802C48.3381 5.53602 50.1621 4.80002 52.4021 4.80002ZM52.2341 6.24002C51.6421 6.24002 51.1861 6.56002 50.8661 7.20002C50.5461 7.84002 50.2181 8.95202 49.8821 10.536C49.5621 12.12 49.4021 13.624 49.4021 15.048C49.4021 16.024 49.6901 16.512 50.2661 16.512C50.7781 16.512 51.2101 16.256 51.5621 15.744C51.9301 15.232 52.1861 14.552 52.3301 13.704L53.6261 6.67202C53.2901 6.38402 52.8261 6.24002 52.2341 6.24002ZM65.6021 16.2C65.1061 17.4 64.0661 18 62.4821 18C61.6661 18 61.0021 17.72 60.4901 17.16C60.0581 16.664 59.8421 16.168 59.8421 15.672C59.8421 14.376 60.1381 12.464 60.7301 9.93602L61.6181 5.28002L66.4901 4.80002L65.0261 12.384C64.7541 13.568 64.6181 14.368 64.6181 14.784C64.6181 15.696 64.9461 16.168 65.6021 16.2ZM62.0501 1.94402C62.0501 1.32002 62.3061 0.840019 62.8181 0.504018C63.3461 0.168019 63.9861 1.90735e-05 64.7381 1.90735e-05C65.4901 1.90735e-05 66.0901 0.168019 66.5381 0.504018C67.0021 0.840019 67.2341 1.32002 67.2341 1.94402C67.2341 2.56802 66.9781 3.04002 66.4661 3.36002C65.9701 3.68002 65.3461 3.84002 64.5941 3.84002C63.8421 3.84002 63.2261 3.68002 62.7461 3.36002C62.2821 3.04002 62.0501 2.56802 62.0501 1.94402Z" fill="#B28C7E"/>
</svg>
