<svg width="118" height="116" viewBox="0 0 118 116" fill="none" xmlns="http://www.w3.org/2000/svg">
<path d="M16.38 101.85C16.38 99.89 16.772 96.95 17.556 93.03H11.34L9.03 105H0.252L5.586 77.28H14.448L12.012 89.67H18.228L20.538 77.28H29.4C29.008 79.352 28.56 81.55 28.056 83.874L26.628 90.72C25.564 96.04 25.032 99.862 25.032 102.186C25.032 103.138 25.186 103.88 25.494 104.412C24.094 105.364 22.568 105.84 20.916 105.84C19.292 105.84 18.13 105.448 17.43 104.664C16.73 103.88 16.38 102.942 16.38 101.85ZM47.4193 97.902C48.1193 98.378 48.4693 99.148 48.4693 100.212C48.4693 101.248 48.2033 102.102 47.6713 102.774C47.1393 103.446 46.4393 104.006 45.5713 104.454C43.7793 105.378 41.9173 105.84 39.9853 105.84C38.0533 105.84 36.5133 105.63 35.3653 105.21C34.2453 104.79 33.3073 104.188 32.5513 103.404C31.0673 101.92 30.3253 99.82 30.3253 97.104C30.3253 92.876 31.4733 89.474 33.7693 86.898C36.2333 84.126 39.6073 82.74 43.8913 82.74C46.5513 82.74 48.5393 83.3 49.8553 84.42C50.8353 85.26 51.3253 86.366 51.3253 87.738C51.3253 92.666 47.0693 95.13 38.5573 95.13C38.4453 95.858 38.3893 96.53 38.3893 97.146C38.3893 98.434 38.6693 99.33 39.2293 99.834C39.8173 100.31 40.6433 100.548 41.7073 100.548C42.7713 100.548 43.8633 100.31 44.9833 99.834C46.1313 99.33 46.9433 98.686 47.4193 97.902ZM38.8513 93.324C40.8393 93.324 42.4073 92.708 43.5553 91.476C44.7033 90.3 45.2773 88.774 45.2773 86.898C45.2773 86.254 45.1513 85.764 44.8993 85.428C44.6753 85.064 44.3253 84.882 43.8493 84.882C43.3733 84.882 42.9253 84.98 42.5053 85.176C42.1133 85.344 41.7073 85.736 41.2873 86.352C40.2513 87.752 39.4393 90.076 38.8513 93.324ZM66.1188 100.254C64.6628 101.766 62.6048 102.522 59.9448 102.522C56.6128 102.522 54.5968 101.304 53.8968 98.868C53.6728 98.14 53.5608 97.37 53.5608 96.558C53.5608 95.746 53.6448 94.92 53.8128 94.08L55.7868 83.58L64.3128 82.74L62.0028 94.962C61.9468 95.326 61.8768 95.704 61.7928 96.096C61.7088 96.488 61.6668 96.894 61.6668 97.314C61.6668 97.706 61.7368 98.042 61.8768 98.322C62.0168 98.574 62.1848 98.784 62.3808 98.952C62.7168 99.176 63.1788 99.288 63.7668 99.288C64.3828 99.288 64.9428 98.924 65.4468 98.196C65.9788 97.468 66.3708 96.474 66.6228 95.214L68.9328 83.58L77.2068 82.74L74.0568 99.246C73.0208 104.622 71.4388 108.374 69.3108 110.502C68.2188 111.594 66.9588 112.35 65.5308 112.77C64.1308 113.218 62.5208 113.442 60.7008 113.442C57.7608 113.442 55.4508 112.98 53.7708 112.056C52.0908 111.132 51.2508 109.9 51.2508 108.36C51.2508 107.212 51.6848 106.302 52.5528 105.63C53.4208 104.986 54.5268 104.664 55.8708 104.664C57.0468 104.664 58.0828 104.916 58.9788 105.42C59.5108 105.728 59.9028 106.078 60.1548 106.47C59.5108 107.03 59.1888 107.772 59.1888 108.696C59.1888 109.928 59.7488 110.544 60.8688 110.544C62.7168 110.544 64.1728 108.416 65.2368 104.16C65.5448 102.9 65.8388 101.598 66.1188 100.254ZM91.9557 82.74C92.9637 82.74 93.8597 82.852 94.6437 83.076C94.6717 82.964 94.7137 82.754 94.7697 82.446L94.9797 81.144C95.0917 80.584 95.2317 79.842 95.3997 78.918L96.0717 75.6L104.43 74.76L99.7677 99.12C99.7397 99.288 99.7257 99.512 99.7257 99.792V100.464C99.7257 101.08 99.8797 101.626 100.188 102.102C100.496 102.55 100.902 102.774 101.406 102.774C100.846 104.09 99.7117 105.028 98.0037 105.588C97.4157 105.756 96.7017 105.84 95.8617 105.84C95.0497 105.84 94.2657 105.616 93.5097 105.168C92.7537 104.748 92.2637 104.174 92.0397 103.446C91.5917 104.174 90.9197 104.748 90.0237 105.168C89.1277 105.616 88.0217 105.84 86.7057 105.84C85.4177 105.84 84.2277 105.672 83.1357 105.336C82.0717 105 81.2037 104.468 80.5317 103.74C79.2997 102.312 78.6837 99.974 78.6837 96.726C78.6837 92.526 79.9157 89.152 82.3797 86.604C84.8437 84.028 88.0357 82.74 91.9557 82.74ZM91.6617 85.26C90.6257 85.26 89.8277 85.82 89.2677 86.94C88.7077 88.06 88.1337 90.006 87.5457 92.778C86.9857 95.55 86.7057 98.182 86.7057 100.674C86.7057 102.382 87.2097 103.236 88.2177 103.236C89.1137 103.236 89.8697 102.788 90.4857 101.892C91.1297 100.996 91.5777 99.806 91.8297 98.322L94.0977 86.016C93.5097 85.512 92.6977 85.26 91.6617 85.26ZM115.056 102.69C114.188 104.79 112.368 105.84 109.596 105.84C108.168 105.84 107.006 105.35 106.11 104.37C105.354 103.502 104.976 102.634 104.976 101.766C104.976 99.498 105.494 96.152 106.53 91.728L108.084 83.58L116.61 82.74L114.048 96.012C113.572 98.084 113.334 99.484 113.334 100.212C113.334 101.808 113.908 102.634 115.056 102.69ZM108.84 77.742C108.84 76.65 109.288 75.81 110.184 75.222C111.108 74.634 112.228 74.34 113.544 74.34C114.86 74.34 115.91 74.634 116.694 75.222C117.506 75.81 117.912 76.65 117.912 77.742C117.912 78.834 117.464 79.66 116.568 80.22C115.7 80.78 114.608 81.06 113.292 81.06C111.976 81.06 110.898 80.78 110.058 80.22C109.246 79.66 108.84 78.834 108.84 77.742Z" fill="#B28C7E"/>
<path d="M33 26C33 11.6406 44.6406 0 59 0C73.3594 0 85 11.6406 85 26C85 40.3594 73.3594 52 59 52C54.6023 52 50.4534 50.9061 46.8172 48.9747L36.5509 51.8941C36.0737 52.0294 35.5691 52.0348 35.0892 51.9099C34.6093 51.7849 34.1714 51.5341 33.8208 51.1833C33.4702 50.8325 33.2197 50.3945 33.095 49.9145C32.9702 49.4345 32.9759 48.9299 33.1115 48.4529L36.0309 38.1884C34.0354 34.436 32.9945 30.25 33 26ZM47.8572 20.4286C47.8572 20.9211 48.0528 21.3935 48.4011 21.7418C48.7494 22.0901 49.2218 22.2857 49.7143 22.2857H68.2857C68.7783 22.2857 69.2506 22.0901 69.5989 21.7418C69.9472 21.3935 70.1429 20.9211 70.1429 20.4286C70.1429 19.936 69.9472 19.4637 69.5989 19.1154C69.2506 18.7671 68.7783 18.5714 68.2857 18.5714H49.7143C49.2218 18.5714 48.7494 18.7671 48.4011 19.1154C48.0528 19.4637 47.8572 19.936 47.8572 20.4286ZM49.7143 29.7143C49.2218 29.7143 48.7494 29.9099 48.4011 30.2582C48.0528 30.6065 47.8572 31.0789 47.8572 31.5714C47.8572 32.064 48.0528 32.5363 48.4011 32.8846C48.7494 33.2329 49.2218 33.4286 49.7143 33.4286H60.8572C61.3497 33.4286 61.8221 33.2329 62.1704 32.8846C62.5186 32.5363 62.7143 32.064 62.7143 31.5714C62.7143 31.0789 62.5186 30.6065 62.1704 30.2582C61.8221 29.9099 61.3497 29.7143 60.8572 29.7143H49.7143Z" fill="#B28C7E"/>
</svg>
